<svg xmlns="http://www.w3.org/2000/svg" width="1280" height="640" viewBox="0 0 1280 640" role="img" aria-labelledby="title desc">
  <title id="title">agent-xplat — Cross-OS portability for AI agent workflows</title>
  <desc id="desc">Runtime Verified on Windows, macOS, and Linux.</desc>
  <rect width="1280" height="640" fill="#0f172a"/>
  <rect x="96" y="72" width="1088" height="496" rx="24" fill="#142235"/>
  <rect x="96" y="72" width="10" height="496" rx="5" fill="#4ade80"/>

  <text x="144" y="168" fill="#4ade80" font-family="Segoe UI, Arial, sans-serif" font-size="24" font-weight="700" letter-spacing="4">Runtime Verified</text>
  <text x="144" y="266" fill="#ffffff" font-family="Segoe UI, Arial, sans-serif" font-size="82" font-weight="700">agent-xplat</text>
  <text x="144" y="338" fill="#d7e3ee" font-family="Segoe UI, Arial, sans-serif" font-size="40" font-weight="600">Cross-OS portability</text>
  <text x="144" y="386" fill="#d7e3ee" font-family="Segoe UI, Arial, sans-serif" font-size="40" font-weight="600">for AI agent workflows</text>

  <rect x="894" y="112" width="238" height="56" rx="28" fill="#1f5d3a"/>
  <circle cx="926" cy="140" r="9" fill="#9be9a8"/>
  <text x="948" y="148" fill="#ffffff" font-family="Segoe UI, Arial, sans-serif" font-size="21" font-weight="700">Runtime Verified</text>

  <g font-family="Segoe UI, Arial, sans-serif" font-size="22" font-weight="600">
    <rect x="144" y="428" width="188" height="54" rx="27" fill="#203a4b" stroke="#4c7081" stroke-width="2"/>
    <text x="238" y="463" fill="#ffffff" text-anchor="middle">Windows &#10003;</text>
    <rect x="348" y="428" width="182" height="54" rx="27" fill="#203a4b" stroke="#4c7081" stroke-width="2"/>
    <text x="439" y="463" fill="#ffffff" text-anchor="middle">macOS &#10003;</text>
    <rect x="546" y="428" width="170" height="54" rx="27" fill="#203a4b" stroke="#4c7081" stroke-width="2"/>
    <text x="631" y="463" fill="#ffffff" text-anchor="middle">Linux &#10003;</text>
  </g>

  <rect x="894" y="228" width="238" height="238" rx="24" fill="#0b1422" stroke="#335269" stroke-width="2"/>
  <rect x="926" y="260" width="70" height="70" rx="14" fill="#2ea44f"/>
  <rect x="1012" y="260" width="70" height="70" rx="14" fill="#58a6ff"/>
  <rect x="926" y="346" width="70" height="70" rx="14" fill="#f2cc60"/>
  <rect x="1012" y="346" width="70" height="70" rx="14" fill="#d2a8ff"/>
  <path d="M 996 295 H 1012 M 961 330 V 346 M 1082 330 V 346 M 996 381 H 1012" fill="none" stroke="#d7e3ee" stroke-width="4"/>

  <text x="144" y="542" fill="#ffffff" font-family="Segoe UI, Arial, sans-serif" font-size="25" font-weight="500">Find the OS assumptions that break agent workflows.</text>
</svg>
